<?xml version="1.0" encoding="iso-8859-1"?>
<!-- Generator: Adobe Illustrator 19.0.0, SVG Export Plug-In . SVG Version: 6.00 Build 0)  -->
<svg version="1.1" id="Capa_1" xmlns="http://www.w3.org/2000/svg" xmlns:xlink="http://www.w3.org/1999/xlink" x="0px" y="0px"
	 viewBox="0 0 512 512" style="enable-background:new 0 0 512 512;" xml:space="preserve">
<circle style="fill:#828282;" cx="256" cy="247.99" r="48"/>
<path style="fill:#505050;" d="M280.5,279.988c-26.51,0-48-21.49-48-48c0-11.482,4.036-22.018,10.761-30.278
	C222.937,207.293,208,225.891,208,247.988c0,26.51,21.49,48,48,48c15.028,0,28.438-6.91,37.239-17.722
	C289.181,279.381,284.913,279.988,280.5,279.988z"/>
<circle style="fill:#82E8DF;" cx="72" cy="111.99" r="24"/>
<path style="fill:#0DB5AF;" d="M88,127.488c-13.255,0-24-10.745-24-24c0-5.852,2.097-11.213,5.578-15.378
	C57.46,89.324,48,99.551,48,111.988c0,13.255,10.745,24,24,24c7.402,0,14.02-3.353,18.422-8.622
	C89.626,127.447,88.818,127.488,88,127.488z"/>
<circle style="fill:#FF5A6E;" cx="472" cy="191.99" r="24"/>
<path style="fill:#D72850;" d="M488,207.488c-13.255,0-24-10.745-24-24c0-5.852,2.097-11.213,5.578-15.378
	C457.46,169.324,448,179.551,448,191.988c0,13.255,10.745,24,24,24c7.402,0,14.02-3.353,18.422-8.622
	C489.625,207.447,488.818,207.488,488,207.488z"/>
<circle style="fill:#F5C346;" cx="152" cy="431.99" r="24"/>
<path style="fill:#D69627;" d="M168,447.488c-13.255,0-24-10.745-24-24c0-5.852,2.097-11.213,5.578-15.378
	C137.46,409.324,128,419.551,128,431.988c0,13.255,10.745,24,24,24c7.402,0,14.02-3.353,18.422-8.622
	C169.626,447.447,168.818,447.488,168,447.488z"/>
<path d="M512,247.988c0-12.681-5.199-24.864-15.441-36.306c4.338-5.398,6.941-12.246,6.941-19.694c0-17.369-14.131-31.5-31.5-31.5
	c-12,0-22.45,6.746-27.767,16.643c-2.089-0.903-4.21-1.792-6.373-2.66c0.17-0.381,0.349-0.764,0.518-1.145
	c22.097-49.915,22.799-88.872,1.978-109.693s-59.777-20.12-109.693,1.977c-24.219,10.721-49.793,25.883-75.445,44.547
	c-23.779-16.838-47.412-30.601-69.879-40.547c-49.915-22.097-88.87-22.798-109.693-1.977c-3.819,3.819-6.941,8.311-9.338,13.38
	C51.647,83.702,40.5,96.564,40.5,111.988c0,15.05,10.612,27.662,24.745,30.763c2.596,9.866,6.204,20.225,10.779,30.976
	C26.99,193.002,0,219.334,0,247.988c0,28.286,26.299,54.309,74.141,73.514c-0.171,0.382-0.35,0.766-0.519,1.147
	c-22.097,49.915-22.799,88.872-1.978,109.693c9.998,9.998,24.478,15.126,42.383,15.126c3.3,0,6.724-0.187,10.251-0.536
	c5.331,9.85,15.758,16.556,27.722,16.556c17.369,0,31.5-14.131,31.5-31.5c0-0.856-0.044-1.701-0.111-2.54
	c23.147-10.446,47.465-24.879,71.886-42.52c26.971,19.995,53.927,36.167,79.387,47.437c25.737,11.394,48.559,17.099,67.485,17.099
	c17.78,0,32.122-5.036,42.208-15.122c20.821-20.821,20.119-59.778-1.978-109.693c-0.864-1.952-1.767-3.915-2.688-5.884
	C486.374,301.635,512,275.906,512,247.988z M472,175.488c9.098,0,16.5,7.402,16.5,16.5s-7.402,16.5-16.5,16.5s-16.5-7.402-16.5-16.5
	S462.902,175.488,472,175.488z M336.733,79.326c43.215-19.129,77.12-20.983,93.015-5.086c15.898,15.897,14.044,49.8-5.086,93.015
	c-0.291,0.657-0.597,1.319-0.895,1.977c-34.866-12.016-77.354-20.018-123.03-23.195c-10.857-9.438-21.819-18.321-32.79-26.578
	C291.398,102.726,314.673,89.092,336.733,79.326z M185.525,326.462c2.304,2.305,4.622,4.578,6.945,6.836
	c-35.981-3.695-69.295-10.535-97.688-20.162c21.374-41.87,55.419-87.085,97.35-129.016c8.121-8.121,16.367-15.939,24.687-23.434
	c12.834-0.789,25.922-1.198,39.18-1.198c13.075,0,25.996,0.403,38.674,1.177c9.849,8.705,19.608,17.87,29.193,27.455
	c19.269,19.269,36.874,39.233,52.351,59.247c-16.42,21.765-35.399,43.537-56.351,64.489c-8.123,8.123-16.365,15.938-24.675,23.429
	c-12.857,0.793-25.948,1.204-39.192,1.204c-13.405,0-26.637-0.418-39.608-1.225c-6.818-6.259-13.581-12.73-20.26-19.408
	c-16.634-16.634-32.204-33.984-46.278-51.57l-11.711,9.373C152.561,291.674,168.503,309.44,185.525,326.462z M127.652,234.55
	c-12.393-17.881-22.891-35.539-31.139-52.298c28.055-9.335,60.813-15.975,96.128-19.591c-3.727,3.56-7.436,7.173-11.116,10.853
	C161.71,193.329,143.594,213.897,127.652,234.55z M334.475,177.514c-5.069-5.069-10.189-10.019-15.345-14.857
	c36.25,3.706,69.792,10.581,98.092,20.172c-8.638,16.922-19.338,34.389-31.802,51.967
	C370.199,215.407,353.089,196.128,334.475,177.514z M255.331,128.743c6.887,5.096,13.78,10.457,20.653,16.055
	c-6.618-0.202-13.282-0.31-19.984-0.31c-7.005,0-13.965,0.117-20.872,0.335C241.846,139.232,248.587,133.862,255.331,128.743z
	 M86.252,78.24c15.897-15.897,49.803-14.042,93.015,5.086c20.348,9.007,41.729,21.304,63.329,36.289
	c-10.693,8.253-21.362,17.093-31.917,26.446c-44.518,3.117-85.936,10.818-120.489,22.499c-3.942-9.154-7.132-17.957-9.52-26.295
	c13.165-3.776,22.83-15.915,22.83-30.277c0-13.586-8.646-25.19-20.724-29.6C83.825,80.893,84.984,79.507,86.252,78.24z M72,128.488
	c-9.098,0-16.5-7.402-16.5-16.5s7.402-16.5,16.5-16.5s16.5,7.402,16.5,16.5S81.098,128.488,72,128.488z M15,247.988
	c0-21.877,24.506-43.939,67.258-60.598c9.263,19.074,21.328,39.181,35.927,59.793c-14.93,20.518-27.613,40.984-37.58,60.749
	C38.878,291.352,15,269.581,15,247.988z M152,448.488c-9.098,0-16.5-7.402-16.5-16.5s7.402-16.5,16.5-16.5s16.5,7.402,16.5,16.5
	S161.098,448.488,152,448.488z M178.597,415.144c-5.593-8.8-15.421-14.655-26.597-14.655c-17.369,0-31.5,14.131-31.5,31.5
	c0,0.076,0.005,0.15,0.006,0.226c-12.978,0.976-28.336-0.558-38.254-10.477c-15.897-15.897-14.044-49.8,5.086-93.015
	c0.29-0.656,0.596-1.317,0.894-1.975c34.811,12.011,76.767,19.931,121.935,23.132c10.781,9.736,21.696,18.938,32.648,27.536
	C220.96,392.911,199.283,405.683,178.597,415.144z M234.342,351.127c7.165,0.235,14.387,0.361,21.658,0.361
	c7.007,0,13.971-0.118,20.888-0.337c-7.148,5.953-14.322,11.653-21.495,17.065C248.36,362.778,241.335,357.071,234.342,351.127z
	 M433.748,425.737c-15.895,15.898-49.801,14.043-93.015-5.086c-23.344-10.334-48.049-24.997-72.882-43.084
	c11.216-8.597,22.415-17.843,33.494-27.666c36.083-2.533,70.285-8.08,100.643-16.433l-3.979-14.463
	c-24.03,6.612-50.589,11.409-78.63,14.291c3.719-3.553,7.42-7.16,11.094-10.833c20.326-20.326,38.859-41.444,55.096-62.633
	c18.091,24.837,32.757,49.545,43.092,72.893C447.792,375.936,449.646,409.839,433.748,425.737z M433.012,307.29
	c-10.24-19.587-23.079-39.806-38.077-60.035c14.45-20.006,26.747-39.947,36.466-59.222c3.114,1.24,6.15,2.515,9.102,3.827
	c0,0.043-0.003,0.085-0.003,0.128c0,17.369,14.131,31.5,31.5,31.5c4.489,0,8.758-0.95,12.625-2.65
	C492.84,229.726,497,238.84,497,247.988C497,269.296,473.738,290.794,433.012,307.29z"/>
<path d="M256,303.488c30.603,0,55.5-24.897,55.5-55.5s-24.897-55.5-55.5-55.5s-55.5,24.897-55.5,55.5S225.398,303.488,256,303.488z
	 M256,207.488c22.332,0,40.5,18.169,40.5,40.5s-18.168,40.5-40.5,40.5s-40.5-18.169-40.5-40.5S233.668,207.488,256,207.488z"/>
<rect x="240" y="224.49" style="fill:#FFFFFF;" width="16" height="15"/>
<g>
</g>
<g>
</g>
<g>
</g>
<g>
</g>
<g>
</g>
<g>
</g>
<g>
</g>
<g>
</g>
<g>
</g>
<g>
</g>
<g>
</g>
<g>
</g>
<g>
</g>
<g>
</g>
<g>
</g>
</svg>
